<svg xmlns="http://www.w3.org/2000/svg" width="32" height="32" viewBox="0 0 32 32">
  <defs>
    <linearGradient id="gamepadGradient" x1="0%" y1="0%" x2="100%" y2="100%">
      <stop offset="0%" style="stop-color:#00ff41;stop-opacity:1" />
      <stop offset="50%" style="stop-color:#00ffff;stop-opacity:1" />
      <stop offset="100%" style="stop-color:#ff00ff;stop-opacity:1" />
    </linearGradient>
    <filter id="glow">
      <feGaussianBlur stdDeviation="1" result="coloredBlur"/>
      <feMerge> 
        <feMergeNode in="coloredBlur"/>
        <feMergeNode in="SourceGraphic"/>
      </feMerge>
    </filter>
  </defs>
  
  <!-- Background -->
  <rect width="32" height="32" fill="#0a0a0a" rx="4"/>
  
  <!-- Gamepad Body -->
  <path d="M8 12 C8 10, 10 8, 12 8 L20 8 C22 8, 24 10, 24 12 L24 16 C24 18, 22 20, 20 20 L12 20 C10 20, 8 18, 8 16 Z" 
        fill="url(#gamepadGradient)" 
        filter="url(#glow)" 
        opacity="0.9"/>
  
  <!-- D-Pad -->
  <rect x="10" y="13" width="3" height="1" fill="#0a0a0a" rx="0.5"/>
  <rect x="11" y="12" width="1" height="3" fill="#0a0a0a" rx="0.5"/>
  
  <!-- Action Buttons -->
  <circle cx="19" cy="12" r="1" fill="#0a0a0a"/>
  <circle cx="21" cy="14" r="1" fill="#0a0a0a"/>
  <circle cx="17" cy="14" r="1" fill="#0a0a0a"/>
  <circle cx="19" cy="16" r="1" fill="#0a0a0a"/>
  
  <!-- Shoulder buttons -->
  <rect x="8" y="9" width="2" height="1" fill="url(#gamepadGradient)" rx="0.5" opacity="0.8"/>
  <rect x="22" y="9" width="2" height="1" fill="url(#gamepadGradient)" rx="0.5" opacity="0.8"/>
  
  <!-- Center button -->
  <circle cx="16" cy="14" r="0.5" fill="url(#gamepadGradient)" opacity="0.6"/>
  
  <!-- Retro scanlines effect -->
  <rect x="0" y="4" width="32" height="1" fill="#00ff41" opacity="0.1"/>
  <rect x="0" y="8" width="32" height="1" fill="#00ff41" opacity="0.1"/>
  <rect x="0" y="12" width="32" height="1" fill="#00ff41" opacity="0.1"/>
  <rect x="0" y="16" width="32" height="1" fill="#00ff41" opacity="0.1"/>
  <rect x="0" y="20" width="32" height="1" fill="#00ff41" opacity="0.1"/>
  <rect x="0" y="24" width="32" height="1" fill="#00ff41" opacity="0.1"/>
  <rect x="0" y="28" width="32" height="1" fill="#00ff41" opacity="0.1"/>
  
  <!-- Neon glow border -->
  <rect x="1" y="1" width="30" height="30" fill="none" stroke="url(#gamepadGradient)" stroke-width="0.5" rx="3" opacity="0.5"/>
</svg>